<svg width="256" height="256" viewBox="0 0 256 256" fill="none" xmlns="http://www.w3.org/2000/svg">
<path d="M106.832 139.049L149.166 117.139Z" fill="url(#paint0_linear_1926_1922)"/>
<path d="M178.36 197.806L92.8537 244.093L12 196.763L160.669 141.218L178.36 197.806Z" fill="url(#paint1_linear_1926_1922)"/>
<path d="M144.486 12.0938L97.9993 149.959L51.7444 124.145L12 196.765L86.2205 184.899L180.398 168.292L243.999 154.039V67.5223L144.486 12.0938Z" fill="url(#paint2_linear_1926_1922)"/>
<path d="M117.032 92.4642L55.2027 74.6484L50.1133 12.0938L102.151 34.0018L144.485 12.0938L117.032 92.4642Z" fill="#087CFA"/>
<path d="M118.844 88.8392L102.15 34.0018L144.484 12.0938L118.844 88.8392Z" fill="url(#paint3_linear_1926_1922)"/>
<path d="M171.654 146.823L50.1156 12.0938L12 98.992L119.324 191.7L171.654 146.823Z" fill="url(#paint4_linear_1926_1922)"/>
<path d="M244 154.039L173.22 170.401L175.921 158.75L244 67.5234V154.039Z" fill="url(#paint5_linear_1926_1922)"/>
<path d="M206.859 244.093L119.326 191.7L171.657 146.822L206.859 244.093Z" fill="url(#paint6_linear_1926_1922)"/>
<path d="M200 56H56V200H200V56Z" fill="url(#paint7_linear_1926_1922)"/>
<g opacity="0.3">
<path opacity="0.3" d="M189.8 173.2L200 166.5V78.2L160 56H110.9L189.8 173.2Z" fill="url(#paint8_linear_1926_1922)"/>
<path opacity="0.3" d="M56 200H156.8L189.8 173.2L110.9 56H56V200Z" fill="url(#paint9_linear_1926_1922)"/>
<path opacity="0.3" d="M90.4998 183.9L65.2998 200H109L90.4998 183.9Z" fill="url(#paint10_linear_1926_1922)"/>
<path opacity="0.3" d="M56 153.6L109.1 200H200V107.8L176.5 56H118L113.8 60.2L56 118.4V153.6Z" fill="url(#paint11_linear_1926_1922)"/>
<path opacity="0.3" d="M170.9 56L200 150.2V107.8L176.5 56H170.9Z" fill="url(#paint12_linear_1926_1922)"/>
</g>
<path d="M127.9 172.9H73.7998V181.9H127.9V172.9Z" fill="white"/>
<path d="M74 73.4004H99.4406C106.416 73.4004 111.956 75.4521 115.649 78.9399C118.726 82.0174 120.368 86.3259 120.368 91.6602V91.8653C120.368 100.893 115.444 106.432 108.468 109.099L122.009 129H107.647L95.7476 111.151H86.1048V129H74V73.4004ZM98.6199 100.482C104.57 100.482 108.058 97.4048 108.058 92.686V92.4808C108.058 87.1465 104.365 84.4794 98.4148 84.4794H86.31V100.482H98.6199V100.482Z" fill="white"/>
<path d="M130.421 73.4004H173.048V84.5203H142.737V96.3551H169.449V107.475H142.737V129H130.421V73.4004Z" fill="white"/>
<defs>
<linearGradient id="paint0_linear_1926_1922" x1="120.988" y1="119.446" x2="132.414" y2="133.538" gradientUnits="userSpaceOnUse">
<stop offset="0.10351" stop-color="#087CFA"/>
<stop offset="0.7929" stop-color="#DD1265"/>
</linearGradient>
<linearGradient id="paint1_linear_1926_1922" x1="67.8194" y1="149.74" x2="140.151" y2="224.941" gradientUnits="userSpaceOnUse">
<stop offset="0.00948" stop-color="#087CFA"/>
<stop offset="0.4931" stop-color="#903ACA"/>
<stop offset="0.92898" stop-color="#DD1265"/>
</linearGradient>
<linearGradient id="paint2_linear_1926_1922" x1="151.92" y1="131.958" x2="203.189" y2="41.6027" gradientUnits="userSpaceOnUse">
<stop offset="0.58883" stop-color="#087CFA"/>
<stop offset="0.99158" stop-color="#0093FF"/>
</linearGradient>
<linearGradient id="paint3_linear_1926_1922" x1="112.277" y1="12.0212" x2="150.289" y2="87.4001" gradientUnits="userSpaceOnUse">
<stop offset="0.21274" stop-color="#087CFA"/>
<stop offset="0.69871" stop-color="#DD1265"/>
</linearGradient>
<linearGradient id="paint4_linear_1926_1922" x1="62.2885" y1="22.2878" x2="96.7719" y2="139.747" gradientUnits="userSpaceOnUse">
<stop stop-color="#087CFA"/>
<stop offset="0.33251" stop-color="#903ACA"/>
<stop offset="0.5988" stop-color="#DD1265"/>
</linearGradient>
<linearGradient id="paint5_linear_1926_1922" x1="282.485" y1="66.9469" x2="177.355" y2="186.691" gradientUnits="userSpaceOnUse">
<stop offset="0.21274" stop-color="#087CFA"/>
<stop offset="0.56433" stop-color="#903ACA"/>
<stop offset="0.84373" stop-color="#DD1265"/>
</linearGradient>
<linearGradient id="paint6_linear_1926_1922" x1="206.725" y1="251.17" x2="140.581" y2="162.692" gradientUnits="userSpaceOnUse">
<stop offset="0.30597" stop-color="#FDB60D"/>
<stop offset="1" stop-color="#DD1265"/>
</linearGradient>
<linearGradient id="paint7_linear_1926_1922" x1="53.6427" y1="53.6427" x2="189.419" y2="189.419" gradientUnits="userSpaceOnUse">
<stop offset="0.0284813" stop-color="#5A1F3A"/>
<stop offset="0.0797561" stop-color="#4E1B32"/>
<stop offset="0.2774" stop-color="#260D18"/>
<stop offset="0.3795" stop-color="#16080E"/>
<stop offset="0.3907" stop-color="#15080E"/>
<stop offset="0.6833" stop-color="#060204"/>
<stop offset="0.9138"/>
</linearGradient>
<linearGradient id="paint8_linear_1926_1922" x1="220.771" y1="140.529" x2="94.3662" y2="67.9902" gradientUnits="userSpaceOnUse">
<stop stop-color="#DD1265"/>
<stop offset="0.4834" stop-color="#DD1265"/>
<stop offset="0.9424" stop-color="#FDB60D"/>
</linearGradient>
<linearGradient id="paint9_linear_1926_1922" x1="124.499" y1="199.888" x2="105.059" y2="37.5794" gradientUnits="userSpaceOnUse">
<stop offset="0.2775" stop-color="#79123A"/>
<stop offset="1" stop-color="#FA4D6C"/>
</linearGradient>
<linearGradient id="paint10_linear_1926_1922" x1="70.497" y1="182.662" x2="100.12" y2="213.519" gradientUnits="userSpaceOnUse">
<stop offset="0.2775" stop-color="#DD1265"/>
<stop offset="0.9684" stop-color="#FDB60D"/>
</linearGradient>
<linearGradient id="paint11_linear_1926_1922" x1="109.526" y1="70.2536" x2="141.001" y2="173.317" gradientUnits="userSpaceOnUse">
<stop offset="0.1368" stop-color="#00AAFF"/>
<stop offset="0.3491" stop-color="#0778BB"/>
<stop offset="0.7127" stop-color="#141E3E"/>
</linearGradient>
<linearGradient id="paint12_linear_1926_1922" x1="173.757" y1="56.5387" x2="205.413" y2="143.954" gradientUnits="userSpaceOnUse">
<stop offset="0.00724206" stop-color="#08396C"/>
<stop offset="1" stop-color="#B72580"/>
</linearGradient>
</defs>
</svg>
